HIERARCHY
ROOT joint_Root
{
	OFFSET 0.0 0.0 0.0
	CHANNELS 6 Xposition Yposition Zposition Zrotation Xrotation Yrotation 
	JOINT Hips
	{
		OFFSET 4.5925 91.4895 -427.239
		CHANNELS 6 Xposition Yposition Zposition Zrotation Xrotation Yrotation 
		JOINT Spine
		{
			OFFSET 15.7357 0.0 0.0
			CHANNELS 6 Xposition Yposition Zposition Zrotation Xrotation Yrotation 
			JOINT Chest
			{
				OFFSET 8.98455 -0.406207 0.0
				CHANNELS 6 Xposition Yposition Zposition Zrotation Xrotation Yrotation 
				JOINT Neck
				{
					OFFSET 16.3773 0.0 0.0
					CHANNELS 6 Xposition Yposition Zposition Zrotation Xrotation Yrotation 
					JOINT Head
					{
						OFFSET 6.45672 0.0 0.0
						CHANNELS 6 Xposition Yposition Zposition Zrotation Xrotation Yrotation 
						End Site
						{
							OFFSET 0.0 0.0 0.0
						}
					}
				}
				JOINT Shoulder_L
				{
					OFFSET 12.9942 -0.242716 4.98039
					CHANNELS 6 Xposition Yposition Zposition Zrotation Xrotation Yrotation 
					JOINT UpperArm_L
					{
						OFFSET 5.34809 0.0 0.0
						CHANNELS 6 Xposition Yposition Zposition Zrotation Xrotation Yrotation 
						JOINT LowerArm_L
						{
							OFFSET 24.3286 1.87007e-05 0.0
							CHANNELS 6 Xposition Yposition Zposition Zrotation Xrotation Yrotation 
							JOINT Hand_L
							{
								OFFSET 22.2916 0.0 0.0
								CHANNELS 6 Xposition Yposition Zposition Zrotation Xrotation Yrotation 
								End Site
								{
									OFFSET 0.0 0.0 0.0
								}
							}
						}
					}
				}
				JOINT Shoulder_R
				{
					OFFSET 12.9945 -0.242716 -4.98039
					CHANNELS 6 Xposition Yposition Zposition Zrotation Xrotation Yrotation 
					JOINT UpperArm_R
					{
						OFFSET -5.34813 0.0 0.0
						CHANNELS 6 Xposition Yposition Zposition Zrotation Xrotation Yrotation 
						JOINT LowerArm_R
						{
							OFFSET -24.3289 0.000322201 0.0
							CHANNELS 6 Xposition Yposition Zposition Zrotation Xrotation Yrotation 
							JOINT Hand_R
							{
								OFFSET -22.2915 -0.000108084 0.0
								CHANNELS 6 Xposition Yposition Zposition Zrotation Xrotation Yrotation 
								End Site
								{
									OFFSET 0.0 0.0 0.0
								}
							}
						}
					}
				}
			}
		}
		JOINT UpperLeg_L
		{
			OFFSET -2.19248 -6.46944 0.0
			CHANNELS 6 Xposition Yposition Zposition Zrotation Xrotation Yrotation 
			JOINT LowerLeg_L
			{
				OFFSET 39.0811 0.0 -1.23785e-05
				CHANNELS 6 Xposition Yposition Zposition Zrotation Xrotation Yrotation 
				JOINT Foot_L
				{
					OFFSET 40.9854 0.0 -1.26872e-05
					CHANNELS 6 Xposition Yposition Zposition Zrotation Xrotation Yrotation 
					JOINT Toes_L
					{
						OFFSET 11.7543 0.0 0.0
						CHANNELS 6 Xposition Yposition Zposition Zrotation Xrotation Yrotation 
						End Site
						{
							OFFSET 0.0 0.0 0.0
						}
					}
				}
			}
		}
		JOINT UpperLeg_R
		{
			OFFSET -2.19251 6.46944 0.0
			CHANNELS 6 Xposition Yposition Zposition Zrotation Xrotation Yrotation 
			JOINT LowerLeg_R
			{
				OFFSET -39.0811 -0.00228153 -0.0401928
				CHANNELS 6 Xposition Yposition Zposition Zrotation Xrotation Yrotation 
				JOINT Foot_R
				{
					OFFSET -40.9854 0.0 0.0
					CHANNELS 6 Xposition Yposition Zposition Zrotation Xrotation Yrotation 
					JOINT Toes_R
					{
						OFFSET -11.7543 0.0 0.0
						CHANNELS 6 Xposition Yposition Zposition Zrotation Xrotation Yrotation 
						End Site
						{
							OFFSET 0.0 0.0 0.0
						}
					}
				}
			}
		}
	}
}
MOTION
Frames:	4
Frame Time:	0.0333333
0.000000 0.000000 0.000000 0.000000 0.000000 -0.000000 0.334149 90.095700 -2.691100 88.338700 -5.476210 11.249600 15.735700 0.000005 -0.000001 87.103300 76.482600 -88.477300 8.984550 -0.406207 -0.000000 19.222100 -1.474530 -2.505750 16.377300 -0.000001 -0.000001 4.022330 -3.233020 -0.328013 6.456720 -0.000001 -0.000000 -9.811940 -1.092650 -5.834540 12.994200 -0.242716 4.980390 -91.268100 6.658310 -79.191300 5.348090 -0.000007 -0.000001 -48.989500 35.936900 -33.187200 24.328600 0.000019 0.000005 6.238720 17.485500 -19.992800 22.291600 -0.000001 0.000005 9.442710 5.217500 2.276530 12.994500 -0.242716 -4.980390 89.210800 4.945000 -80.920800 -5.348130 -0.000001 -0.000004 -74.041500 -20.957800 -65.983500 -24.328900 0.000322 -0.000009 21.451400 -5.526280 -103.771000 -22.291500 -0.000108 -0.000004 44.002200 5.293070 0.265663 -2.192480 -6.469440 -0.000000 -173.285000 -14.969700 -2.766880 39.081100 -0.000007 -0.000012 -0.232348 0.321699 35.839200 40.985400 -0.000006 -0.000013 0.615833 4.020020 -71.281400 11.754300 -0.000000 0.000003 -0.000140 -0.001371 -16.629700 -2.192510 6.469440 -0.000001 175.198000 18.866900 178.182000 -39.081100 -0.002282 -0.040193 -0.076556 0.116604 34.402500 -40.985400 0.000008 0.000006 6.327710 14.057000 -71.686800 -11.754300 -0.000006 -0.000006 -0.002103 -0.029994 -17.792700
0.000000 0.000000 0.000000 0.000000 0.000000 -0.000000 0.368809 90.096000 -2.738960 88.364600 -5.643950 11.252700 15.735700 0.000005 -0.000001 87.062000 76.482000 -88.405300 8.984550 -0.406207 -0.000000 19.222500 -1.490600 -2.441440 16.377300 -0.000001 -0.000001 4.159610 -3.316630 -0.220659 6.456720 -0.000001 -0.000000 -9.825250 -1.179070 -5.815080 12.994200 -0.242716 4.980390 -91.264000 6.661830 -79.231200 5.348090 -0.000007 -0.000001 -48.976900 35.941600 -33.303300 24.328600 0.000019 0.000005 6.251670 17.501400 -20.015100 22.291600 -0.000001 0.000005 9.465980 5.220620 2.196980 12.994500 -0.242716 -4.980390 89.229600 4.804320 -80.879200 -5.348130 -0.000001 -0.000004 -72.212600 -20.214000 -66.297200 -24.328900 0.000322 -0.000009 21.442400 -5.691870 -104.172000 -22.291500 -0.000108 -0.000004 43.974100 5.295030 0.211121 -2.192480 -6.469440 -0.000000 -173.307000 -15.136700 -2.770000 39.081100 -0.000007 -0.000012 -0.233007 0.322647 35.836300 40.985400 -0.000006 -0.000013 0.633510 3.977510 -71.261900 11.754300 -0.000000 0.000003 -0.000128 -0.001272 -16.626100 -2.192510 6.469440 -0.000001 175.182000 18.733000 178.110000 -39.081100 -0.002282 -0.040193 -0.081313 0.123476 34.418700 -40.985400 0.000008 0.000006 6.235160 14.129100 -71.619100 -11.754300 -0.000006 -0.000006 -0.002176 -0.030904 -17.829700
0.000000 0.000000 0.000000 0.000000 0.000000 -0.000000 0.388282 90.097600 -2.780210 88.384200 -5.788000 11.228700 15.735700 0.000005 -0.000001 86.984900 76.490900 -88.306100 8.984550 -0.406207 -0.000000 19.202800 -1.522870 -2.391740 16.377300 -0.000001 -0.000001 4.329840 -3.384500 -0.125309 6.456720 -0.000001 -0.000000 -9.824580 -1.247300 -5.769910 12.994200 -0.242716 4.980390 -91.243100 6.604040 -79.315000 5.348090 -0.000007 -0.000001 -49.039700 35.914900 -33.347100 24.328600 0.000019 0.000005 6.269520 17.508000 -20.061400 22.291600 -0.000001 0.000005 9.519020 5.219700 2.220420 12.994500 -0.242716 -4.980390 89.250000 4.684900 -80.894800 -5.348130 -0.000001 -0.000004 -70.190500 -19.435600 -66.647100 -24.328900 0.000322 -0.000009 21.364700 -5.850360 -104.605000 -22.291500 -0.000108 -0.000004 43.766000 5.297610 0.138998 -2.192480 -6.469440 -0.000000 -173.328000 -15.241900 -2.796220 39.081100 -0.000007 -0.000012 -0.230822 0.319728 35.827200 40.985400 -0.000006 -0.000013 0.641298 3.957800 -71.243500 11.754300 -0.000000 0.000003 -0.000129 -0.001275 -16.626200 -2.192510 6.469440 -0.000001 175.196000 18.637300 178.012000 -39.081100 -0.002282 -0.040193 -0.083436 0.126472 34.440300 -40.985400 0.000008 0.000006 6.238200 14.150400 -71.580200 -11.754300 -0.000006 -0.000006 -0.002128 -0.030302 -17.805300
0.000000 0.000000 0.000000 0.000000 0.000000 -0.000000 0.405637 90.101400 -2.815400 88.407100 -5.852300 11.253700 15.735700 0.000005 -0.000001 86.924800 76.483500 -88.225400 8.984550 -0.406207 -0.000000 19.216300 -1.549420 -2.345800 16.377300 -0.000001 -0.000001 4.465400 -3.471060 0.037306 6.456720 -0.000001 -0.000000 -9.858790 -1.307950 -5.782740 12.994200 -0.242716 4.980390 -91.224000 6.533400 -79.364800 5.348090 -0.000007 -0.000001 -49.074400 35.964700 -33.478700 24.328600 0.000019 0.000005 6.303520 17.604800 -20.063500 22.291600 -0.000001 0.000005 9.579580 5.218760 2.244510 12.994500 -0.242716 -4.980390 89.263800 4.585420 -80.868600 -5.348130 -0.000001 -0.000004 -67.967500 -18.672300 -66.982200 -24.328900 0.000322 -0.000009 21.463300 -6.071730 -105.058000 -22.291500 -0.000108 -0.000004 43.570600 5.301870 0.019568 -2.192480 -6.469440 -0.000000 -173.351000 -15.299000 -2.777760 39.081100 -0.000007 -0.000012 -0.231575 0.321019 35.806200 40.985400 -0.000006 -0.000013 0.649119 3.930760 -71.214400 11.754300 -0.000000 0.000003 -0.000130 -0.001285 -16.626600 -2.192510 6.469440 -0.000001 175.179000 18.583800 177.998000 -39.081100 -0.002282 -0.040193 -0.081593 0.123733 34.451600 -40.985400 0.000008 0.000006 6.309830 14.160200 -71.579900 -11.754300 -0.000006 -0.000006 -0.002117 -0.030167 -17.799800
